<?xml version="1.0" encoding="iso-8859-1"?>
<!-- Generator: Adobe Illustrator 19.0.0, SVG Export Plug-In . SVG Version: 6.00 Build 0)  -->
<svg version="1.1" id="Capa_1" xmlns="http://www.w3.org/2000/svg" xmlns:xlink="http://www.w3.org/1999/xlink" x="0px" y="0px"
	 viewBox="0 0 297.2 297.2" style="enable-background:new 0 0 297.2 297.2;" xml:space="preserve">
<g>
	<g>
		<path d="M237,92.4h-12.4V62c0-1.6-0.8-2.8-2-3.6c-3.2-14.4-16-24.8-31.2-24.8c-2.4,0-4.4,0.4-6.4,0.8c-4-10-10-16.8-18.4-20.4
			c-12-5.2-24.8-1.6-31.2,0.8C128.2,6,117.4,0,105.4,0c-19.6,0-36,14.8-38,34c-3.6-1.6-7.6-2.4-11.6-2.4c-16.8,0-30.4,13.6-30.8,30
			c0,0,0,0,0,0.4v199.6c0,19.6,16,35.6,35.6,35.6h128c19.6,0,35.6-16,35.6-35.6v-32H237c19.2,0,35.2-15.6,35.2-35.2v-66.8
			C272.2,108.4,256.6,92.4,237,92.4z M55.8,42.4c5.2,0,10,2,13.6,5.6c1.6,1.6,4,2,6,0.8s3.2-3.2,2.8-5.6c-0.4-1.6-0.4-2.8-0.4-4.4
			c0-15.6,12.4-28,28-28c15.2,0,28,12.8,28,27.6v0.4c0,2.8,2.4,5.2,5.2,5.2s5.2-2.4,5.2-5.6c0-5.2-1.2-10-2.8-14.8
			c5.2-1.6,14-3.6,21.6-0.4c5.6,2.4,9.6,7.2,12.8,14.4c-3.6,2-6.4,4.8-9.2,8.4c-1.6,2.4-1.2,5.6,1.2,7.6c2.4,1.6,5.6,1.2,7.6-1.2
			c4-5.6,10.4-8.8,17.2-8.8c8.8,0,16,5.2,19.6,12.8h-94c-2.8,0-5.2,2.4-5.2,5.2v27.6c0,3.2-2.8,6-6,6s-6-2.8-6-6V61.6
			c0-2.8-2.4-5.2-5.2-5.2s-5.2,2.4-5.2,5.2v27.6v18c0,6-4.8,10.8-10.8,10.8S69,113.2,69,107.2V62c0-2.8-2.4-5.2-5.2-5.2H36.6
			C39,48.4,46.6,42.4,55.8,42.4z M188.6,286.8h-128c-12,0-22-8.4-24.4-20h177.2C210.6,278.4,200.6,286.8,188.6,286.8z M213.4,256.4
			h-178V67.2h22.8v40.4c0,11.6,9.6,21.2,21.2,21.2c11.6,0,21.2-9.6,21.2-21.2v-2.8c2,0.8,4,1.2,6,1.2c9.2,0,16.4-7.6,16.4-16.4V67.2
			h90c0,0.4,0.4,0.4,0.4,0.8V256.4z M261.8,194.8c0,13.6-10.8,24.4-24.4,24.4h-12.8v-116h12.8c13.6,0,24.4,10.8,24.4,24.4V194.8z"/>
	</g>
</g>
<g>
</g>
<g>
</g>
<g>
</g>
<g>
</g>
<g>
</g>
<g>
</g>
<g>
</g>
<g>
</g>
<g>
</g>
<g>
</g>
<g>
</g>
<g>
</g>
<g>
</g>
<g>
</g>
<g>
</g>
</svg>
