<?xml version="1.0" encoding="iso-8859-1"?>
<!-- Generator: Adobe Illustrator 19.0.0, SVG Export Plug-In . SVG Version: 6.00 Build 0)  -->
<svg version="1.1" id="Capa_1" xmlns="http://www.w3.org/2000/svg" xmlns:xlink="http://www.w3.org/1999/xlink" x="0px" y="0px"
	 viewBox="0 0 291.6 291.6" style="enable-background:new 0 0 291.6 291.6;" xml:space="preserve">
<path style="fill:#FFD429;" d="M115.8,60.8H149h65.6v195.6c0,16.4-13.6,30-30,30H59.4c-16.4,0-30-13.6-30-30V60.8h32.8H115.8z"/>
<path style="fill:#FFFFFF;" d="M71.8,40c0,0-2.4-32,29.2-33.6s33.6,16.8,33.6,16.8s7.2-8.4,23.2-6C173.8,19.6,179,38,179,38
	s11.6-1.6,24,4c12.4,5.2,12.8,21.2,12.8,21.2h-99.6v27.6c0,0-4.4,7.2-11.2,7.2c-7.2-0.4-10.4-4.4-10.4-4.4v20c0,0-9.2,7.6-19.2,7.6
	s-12.8-14-12.8-14V71.6l-2-8H29.8C29.8,63.6,29,28,71.8,40z"/>
<path style="fill:#303C49;" d="M219.4,58c-2.8-14.4-15.6-25.6-30.8-25.6c-2,0-4.4,0.4-6.4,0.8c-4-9.6-10-16.4-18-19.6
	c-11.6-4.8-24.4-1.6-30.8,0.8C126.6,5.6,115.8,0,103.8,0C84.6,0,68.6,14.4,66.2,33.2c-3.6-1.6-7.6-2.4-11.6-2.4
	c-16.4,0-30,13.2-30.4,29.6c0,0,0,0,0,0.4v195.6c0,19.2,15.6,35.2,35.2,35.2H185c19.2,0,35.2-15.6,35.2-35.2v-31.2H233
	c18.8,0,34.4-15.2,34.4-34.4v-66c0-18.8-15.2-34.4-34.4-34.4h-12.8v-30C220.2,59.6,219.8,58.8,219.4,58z M35,251.2V66h22.4v39.6
	c0,11.6,9.2,20.8,20.8,20.8S99,117.2,99,105.6v-2.8c1.6,0.8,3.6,1.2,5.6,1.2c8.8,0,16-7.2,16-16V66h89.2v185.2L35,251.2L35,251.2z
	 M55,41.2c4.8,0,9.6,2,13.6,5.2c1.6,1.6,4,2,6,0.8s3.2-3.2,2.8-5.6C77,40,77,38.8,77,37.6C77,22.4,89.4,10,104.2,10
	c15.2,0,27.2,12.4,27.2,27.2v0.4c0,2.8,2.4,5.2,5.2,5.2s5.2-2.4,5.2-5.2c0-5.2-1.2-10-2.8-14.4c5.2-1.6,13.6-3.6,21.2-0.4
	c5.2,2.4,9.6,7.2,12.4,14c-3.6,2-6.4,4.8-8.8,8c-1.6,2.4-1.2,5.6,1.2,7.2c2.4,1.6,5.6,1.2,7.2-1.2c4-5.2,10-8.4,16.8-8.4
	c8.4,0,16,5.2,19.2,12.4h-92.4c-2.8,0-5.2,2.4-5.2,5.2l0,0v27.2c0,3.2-2.4,5.6-5.6,5.6c-3.2,0-5.6-2.4-5.6-5.6V60
	c0-2.8-2.4-5.2-5.2-5.2S89,57.2,89,60v27.2v18.4c0,6-4.8,10.4-10.4,10.4c-6,0-10.4-4.8-10.4-10.4V60.8l0,0c0-2.8-2.4-5.2-5.2-5.2
	H36.6C38.6,47.2,45.8,41.2,55,41.2z M185,280.8H59.4c-12,0-21.6-8.4-24-19.6H209C206.6,272.4,196.6,280.8,185,280.8z M232.6,100.8
	c13.2,0,24,10.8,24,24v65.6c0,13.2-10.8,24-24,24h-12.8V100.8H232.6z"/>
<g>
</g>
<g>
</g>
<g>
</g>
<g>
</g>
<g>
</g>
<g>
</g>
<g>
</g>
<g>
</g>
<g>
</g>
<g>
</g>
<g>
</g>
<g>
</g>
<g>
</g>
<g>
</g>
<g>
</g>
</svg>
